<svg xmlns="http://www.w3.org/2000/svg" viewBox="0 0 660 60">
  <!-- AISI "Inspect" logo mark (red A|S| letterforms) -->
  <g transform="translate(0, 6) scale(1)">
    <svg width="143" height="48" viewBox="0 0 143 48" fill="none">
      <path d="M53.7019 0.230469H47.7339V47.6157H53.7019V0.230469Z" fill="#F90D29"/>
      <path d="M107.312 0.230469H101.344V47.6157H107.312V0.230469Z" fill="#F90D29"/>
      <path d="M41.1464 47.6166H34.7945L20.5745 8.54227L6.3519 47.6166H0L17.2471 0.232422H23.8998L41.1464 47.6166Z" fill="#F90D29"/>
      <path d="M80.1392 47.5123H61.9365V41.5443H80.1392C84.2049 41.5443 87.5129 38.2364 87.5129 34.1706C87.5129 30.1048 84.2049 26.7942 80.1392 26.7942H75.1588C67.8024 26.7942 61.8176 20.8094 61.8176 13.4525C61.8176 6.09562 67.8019 0.111328 75.1588 0.111328H93.4809V6.07931H75.1588C71.093 6.07931 67.7851 9.38726 67.7851 13.453C67.7851 17.5188 71.093 20.8268 75.1588 20.8268H80.1392C87.4955 20.8268 93.4803 26.8116 93.4803 34.168C93.4803 41.5244 87.4955 47.5123 80.1392 47.5123Z" fill="#F90D29"/>
    </svg>
  </g>

  <!-- "inspect" text in AISI style -->
  <text x="155" y="40" font-family="system-ui, -apple-system, sans-serif" font-size="28" font-weight="600" fill="#101828" letter-spacing="1">inspect</text>

  <!-- Separator -->
  <text x="300" y="40" font-family="system-ui, -apple-system, sans-serif" font-size="28" font-weight="300" fill="#868e96">-</text>

  <!-- MLflow official wordmark -->
  <g transform="translate(320, 8)">
    <svg width="218" height="44" viewBox="0 0 109 40" fill="none">
      <path d="M0 31.0316V15.5024H3.54258V17.4699C4.43636 15.8756 6.38278 15.045 8.13589 15.045C10.178 15.045 11.9636 15.9713 12.7943 17.7895C14.0096 15.7474 15.8278 15.045 17.8373 15.045C20.6469 15.045 23.3263 16.8325 23.3263 20.9493V31.0316H19.7531V21.5541C19.7531 19.7359 18.8268 18.3636 16.7522 18.3636C14.8057 18.3636 13.5292 19.8947 13.5292 21.8086V31.0297H9.89282V21.5541C9.89282 19.7684 8.99522 18.3732 6.88995 18.3732C4.91292 18.3732 3.66699 19.8412 3.66699 21.8182V31.0392Z" fill="#212529"/>
      <path d="M27.8546 31.0316V7.92917H31.5579V31.0316Z" fill="#212529"/>
      <path d="M30.0708 39.4871C30.9033 39.7187 31.6517 39.8699 33.2402 39.8699C36.1933 39.8699 39.6765 38.2048 40.5933 33.5311L44.3789 14.7923H50.0076L50.6947 11.6746H45.0086L45.7741 7.95023C46.3598 5.05837 47.9598 3.59234 50.5282 3.59234C51.1962 3.59234 51.0086 3.64975 51.6038 3.76267L52.4268 0.570327C51.6344 0.333006 50.9244 0.191379 49.378 0.191379C47.7454 0.166831 46.1514 0.688934 44.8497 1.67463C43.4086 2.78851 42.4574 4.42487 42.023 6.53779L40.9569 11.6746H35.9234L35.5119 14.7943H40.3349L36.8593 32.1206C36.4765 34.0861 35.3588 36.4364 32.1512 36.4364C31.4239 36.4364 31.688 36.3809 31.0297 36.2737Z" fill="#0194E2"/>
      <path d="M53.3416 30.9053H49.6402L54.7139 7.59616H58.4153Z" fill="#0194E2"/>
      <path d="M71.8067 16.4766C68.5762 14.2161 64.1778 14.6606 61.4649 17.5216C58.7519 20.3826 58.5416 24.7984 60.9703 27.9043L63.3952 26.1244C62.1915 24.6312 61.9471 22.5815 62.7658 20.8471C63.5845 19.1127 65.3224 17.9987 67.2402 17.979V19.8737Z" fill="#43C9ED"/>
      <path d="M62.6179 29.4717C65.8484 31.7322 70.2468 31.2877 72.9597 28.4267C75.6727 25.5657 75.883 21.1499 73.4543 18.044L71.0294 19.8239C72.2331 21.3171 72.4775 23.3668 71.6588 25.1012C70.8401 26.8356 69.1022 27.9496 67.1844 27.9693V26.0746Z" fill="#0194E2"/>
      <path d="M78.0919 15.4928H82.1359L82.9588 26.1053L88.7177 15.4928L92.5569 15.5483L94.0651 26.1053L99.1387 15.4928L102.84 15.5483L95.1617 31.0412H91.4603L89.6765 19.9349L83.7818 31.0412H79.9426Z" fill="#0194E2"/>
    </svg>
  </g>
</svg>
